<svg xmlns="http://www.w3.org/2000/svg" xmlns:xlink="http://www.w3.org/1999/xlink" width="100%" height="100%" version="1.1" viewBox="0 0 2126 591" xml:space="preserve" style="fill-rule:evenodd;clip-rule:evenodd;stroke-linejoin:round;stroke-miterlimit:1.5"><g transform="matrix(1.18075,0,0,1.18075,-1265.31,-1395.82)"><circle cx="1314.98" cy="1424.52" r="190.496" style="fill:#5856e0"/></g><g><g><path d="M1244.39,1293.95L1244.39,1493.59C1244.39,1493.59 1243.58,1561.48 1319.29,1562.47C1395.27,1563.46 1394.17,1493.59 1394.17,1493.59L1394.17,1293.95" style="fill:none;stroke:#fff;stroke-width:31.25px" transform="matrix(1,0,0,1,-1017.49,-1140.55) matrix(0.707351,0.706862,-0.706862,0.707351,1331.93,-512.804)"/></g><g><path d="M1244.39,1293.95L1244.39,1493.59C1244.39,1493.59 1243.58,1561.48 1319.29,1562.47C1395.27,1563.46 1394.17,1493.59 1394.17,1493.59L1394.17,1293.95" style="fill:none;stroke:#fff;stroke-width:31.25px" transform="matrix(1,0,0,1,-1017.49,-1140.55) matrix(-0.710067,-0.704134,0.704134,-0.710067,1284.12,3366.41)"/></g></g><g><text x="770.835" y="299.13" style="font-family:'HelveticaNeue','Helvetica Neue';font-size:50px;fill:#5e5edb" transform="matrix(8.26174,0,0,8.26174,-5762.21,-2037.46)">l<tspan x="782.685 794.535 823.085 849.785 880.185 892.035 920.585" y="299.13 299.13 299.13 299.13 299.13 299.13 299.13">inkding</tspan></text></g></svg>